<?xml version="1.0" encoding="iso-8859-1"?>
<!-- Generator: Adobe Illustrator 21.0.2, SVG Export Plug-In . SVG Version: 6.00 Build 0)  -->
<svg xmlns="http://www.w3.org/2000/svg" xmlns:xlink="http://www.w3.org/1999/xlink" version="1.1" id="Layer_1" x="0px" y="0px" viewBox="0 0 40 40" style="enable-background:new 0 0 40 40;" xml:space="preserve">
<path style="fill:none;stroke:#4788C7;stroke-linecap:round;stroke-miterlimit:10;" d="M8.5,13.5c-2.852,0.6-4.492,3-7,3"/>
<path style="fill:none;stroke:#4788C7;stroke-linecap:round;stroke-miterlimit:10;" d="M8.5,19.5c-2.852,0.6-4.492,3-7,3"/>
<path style="fill:none;stroke:#4788C7;stroke-linecap:round;stroke-miterlimit:10;" d="M8.5,25.5c-2.852,0.6-4.492,3-7,3"/>
<g>
	<rect x="7.5" y="2.5" style="fill:#DFF0FE;" width="25" height="35"/>
	<g>
		<path style="fill:#4788C7;" d="M32,3v34H8V3H32 M33,2H7v36h26V2L33,2z"/>
	</g>
</g>
<rect x="30" y="10" style="fill:#DFF0FE;" width="3" height="20"/>
<path style="fill:none;stroke:#4788C7;stroke-linecap:round;stroke-miterlimit:10;" d="M13.5,13.5c2.51,0,5.892,3,8.333,3  s5.762-3,8.333-3s5.844,3,8.333,3"/>
<path style="fill:none;stroke:#4788C7;stroke-linecap:round;stroke-miterlimit:10;" d="M13.5,19.5c2.51,0,5.892,3,8.333,3  s5.762-3,8.333-3s5.844,3,8.333,3"/>
<path style="fill:none;stroke:#4788C7;stroke-linecap:round;stroke-miterlimit:10;" d="M13.5,25.5c2.51,0,5.892,3,8.333,3  s5.762-3,8.333-3s5.844,3,8.333,3"/>
<path style="fill:#4788C7;" d="M32.5,8L32.5,8C32.775,8,33,8.225,33,8.5v2c0,0.275-0.225,0.5-0.5,0.5l0,0  c-0.275,0-0.5-0.225-0.5-0.5v-2C32,8.225,32.225,8,32.5,8z"/>
<path style="fill:#4788C7;" d="M32.5,29L32.5,29c0.275,0,0.5,0.225,0.5,0.5v2c0,0.275-0.225,0.5-0.5,0.5l0,0  c-0.275,0-0.5-0.225-0.5-0.5v-2C32,29.225,32.225,29,32.5,29z"/>
</svg>
